# xmcd
#
# Track frame offsets: 
#        150
#        22152
#        41000
#        63897
#        72977
#        92605
#        110010
#        135932
#        154422
#        165550
#        189385
#        214145
#        241485
#
# Disc length: 3351 seconds
#
# Revision: 2
# Processed by: cddbd v1.5.2PL0 Copyright (c) Steve Scherf et al.
# Submitted via: ExactAudioCopyFreeDBPlugin 1.0
#
DISCID=b40d150d
DTITLE=Ian Moore - Modernday Folklore
DYEAR=1995
DGENRE=Blues
TTITLE0=Muddy Jesus
TTITLE1=Society
TTITLE2=Today
TTITLE3=Daggers
TTITLE4=Bar Line 99
TTITLE5=Dandelion
TTITLE6=Lie
TTITLE7=Train Tracks
TTITLE8=Monday Afternoon
TTITLE9=I Feel Like You'll Be Gone
TTITLE10=Home
TTITLE11=Stain
TTITLE12=Morning Song
EXTD=
EXTT0=
EXTT1=
EXTT2=
EXTT3=
EXTT4=
EXTT5=
EXTT6=
EXTT7=
EXTT8=
EXTT9=
EXTT10=
EXTT11=
EXTT12=
PLAYORDER=
